<svg width="120" height="34" viewBox="0 0 120 34" fill="none" xmlns="http://www.w3.org/2000/svg">
<g id="&#208;&#187;&#208;&#190;&#208;&#179;&#208;&#190;">
<g id="GetMoney">
<path d="M40.8555 16.4332C40.8555 14.5946 41.4702 13.0624 42.6996 11.8366C43.929 10.6109 45.4569 9.99805 47.2831 9.99805C48.5364 9.99805 49.6763 10.3106 50.7028 10.9357C51.7413 11.5731 52.5171 12.4311 53.0304 13.5098L50.5596 14.4475C50.2492 13.8469 49.8016 13.3749 49.2168 13.0317C48.6319 12.6885 47.9873 12.5169 47.2831 12.5169C46.2088 12.5169 45.3136 12.8908 44.5975 13.6385C43.8813 14.3862 43.5232 15.3116 43.5232 16.4148C43.5232 17.5179 43.8634 18.4495 44.5437 19.2094C45.236 19.9571 46.0954 20.331 47.122 20.331C47.8978 20.331 48.5961 20.1165 49.2168 19.6875C49.8374 19.2462 50.2612 18.664 50.488 17.9408H46.8176V15.6977L53.3885 15.6977C53.3885 15.759 53.3944 15.8754 53.4064 16.047C53.4302 16.2064 53.4422 16.3106 53.4422 16.3596C53.4183 18.235 52.8155 19.7794 51.6338 20.9929C50.4283 22.2309 48.9363 22.8499 47.1578 22.8499C45.3673 22.8499 43.8694 22.237 42.6638 21.0113C41.4582 19.7733 40.8555 18.2472 40.8555 16.4332Z" fill="white"/>
<path d="M62.8527 19.3565L56.8547 19.3565C56.986 19.7978 57.2307 20.1533 57.5888 20.4229C57.9469 20.6803 58.3587 20.809 58.8242 20.809C59.4688 20.809 59.9999 20.5578 60.4177 20.0552L62.6557 20.5884C62.2976 21.2871 61.7724 21.8386 61.0802 22.2431C60.3998 22.6354 59.6359 22.8315 58.7884 22.8315C57.5351 22.8315 56.4907 22.4209 55.6552 21.5996C54.8196 20.7784 54.4019 19.7426 54.4019 18.4924C54.4019 17.2544 54.8077 16.2187 55.6193 15.3852C56.4549 14.5517 57.4695 14.1349 58.6631 14.1349C59.8686 14.1349 60.8772 14.5517 61.6889 15.3852C62.5125 16.2187 62.9243 17.2544 62.9243 18.4924C62.9243 18.8601 62.9004 19.1482 62.8527 19.3565ZM56.8547 17.5731H60.5609C60.4296 17.1563 60.1909 16.8193 59.8448 16.5619C59.4986 16.3045 59.1107 16.1758 58.681 16.1758C58.2751 16.1758 57.8992 16.3045 57.553 16.5619C57.2188 16.8193 56.986 17.1563 56.8547 17.5731Z" fill="white"/>
<path d="M63.3997 16.4332V14.3555H64.5098V12.756H66.8194V14.3555H68.6994V16.4332H66.8194V19.522C66.8194 19.7672 66.903 19.9755 67.0701 20.1471C67.2372 20.3065 67.4461 20.3861 67.6968 20.3861L68.6994 20.3861V22.6292L67.3208 22.6292C66.5449 22.6292 65.8765 22.378 65.3155 21.8754C64.7784 21.3729 64.5098 20.7477 64.5098 20V16.4332H63.3997Z" fill="white"/>
<path d="M72.4986 22.6292H69.9741V10.2187H72.4986L76.6703 17.7937L80.8599 10.2187H83.3844V22.6292H80.8599V15.091L77.5118 21.2687H75.8288L72.4986 15.1277V22.6292Z" fill="white"/>
<path d="M85.9202 21.5996C85.1086 20.7661 84.7027 19.7304 84.7027 18.4924C84.7027 17.2544 85.1086 16.2187 85.9202 15.3852C86.7557 14.5517 87.7822 14.1349 88.9997 14.1349C90.2172 14.1349 91.2437 14.5517 92.0793 15.3852C92.9029 16.2187 93.3147 17.2544 93.3147 18.4924C93.3147 19.7304 92.9029 20.7661 92.0793 21.5996C91.2676 22.4209 90.2411 22.8315 88.9997 22.8315C87.7584 22.8315 86.7319 22.4209 85.9202 21.5996ZM88.9997 20.4781C89.5369 20.4781 89.9845 20.2881 90.3426 19.9081C90.7126 19.5281 90.8976 19.0562 90.8976 18.4924C90.8976 17.9286 90.7126 17.4566 90.3426 17.0767C89.9845 16.6844 89.5369 16.4883 88.9997 16.4883C88.4745 16.4883 88.0269 16.6844 87.6569 17.0767C87.2988 17.4566 87.1198 17.9286 87.1198 18.4924C87.1198 19.0562 87.2988 19.5281 87.6569 19.9081C88.0269 20.2881 88.4745 20.4781 88.9997 20.4781Z" fill="white"/>
<path d="M94.43 22.6292V14.3555H96.7576V15.1829C97.3067 14.4842 98.0407 14.1349 98.9598 14.1349C99.8192 14.1349 100.547 14.4413 101.144 15.0542C101.741 15.6671 102.039 16.4209 102.039 17.3157V22.6292L99.7118 22.6292V17.9408C99.7118 17.4873 99.5686 17.1134 99.2821 16.8193C99.0076 16.5128 98.6614 16.3596 98.2437 16.3596C97.8259 16.3596 97.4738 16.5128 97.1873 16.8193C96.9008 17.1134 96.7576 17.4873 96.7576 17.9408V22.6292H94.43Z" fill="white"/>
<path d="M111.6 19.3565H105.602C105.733 19.7978 105.978 20.1533 106.336 20.4229C106.694 20.6803 107.106 20.809 107.571 20.809C108.216 20.809 108.747 20.5578 109.165 20.0552L111.403 20.5884C111.045 21.2871 110.52 21.8386 109.827 22.2431C109.147 22.6354 108.383 22.8315 107.536 22.8315C106.282 22.8315 105.238 22.4209 104.402 21.5996C103.567 20.7784 103.149 19.7426 103.149 18.4924C103.149 17.2544 103.555 16.2187 104.366 15.3852C105.202 14.5517 106.217 14.1349 107.41 14.1349C108.616 14.1349 109.624 14.5517 110.436 15.3852C111.26 16.2187 111.671 17.2544 111.671 18.4924C111.671 18.8601 111.648 19.1482 111.6 19.3565ZM105.602 17.5731H109.308C109.177 17.1563 108.938 16.8193 108.592 16.5619C108.246 16.3045 107.858 16.1758 107.428 16.1758C107.022 16.1758 106.646 16.3045 106.3 16.5619C105.966 16.8193 105.733 17.1563 105.602 17.5731Z" fill="white"/>
<path d="M114.504 23.0337L114.665 22.5741L111.621 14.3555H114.021L115.775 19.4485L117.602 14.3555H120.001L116.438 23.8243C116.056 24.8417 115.548 25.5833 114.916 26.049C114.283 26.5271 113.478 26.7661 112.499 26.7661H112.248V24.4862H112.517C113.507 24.4862 114.17 24.0021 114.504 23.0337Z" fill="white"/>
</g>
<path id="Subtract" fill-rule="evenodd" clip-rule="evenodd" d="M14.2949 33.4101C23.5209 33.4101 31 25.931 31 16.7051C31 7.47912 23.5209 0 14.2949 0C8.23467 0 2.92814 3.22708 0 8.05656C0.262523 7.75104 0.541844 7.45371 0.837952 7.16459C3.44866 4.61541 6.69304 3.34082 10.5711 3.34082C13.2325 3.34082 15.6531 3.99086 17.8329 5.29094C20.0381 6.61651 21.6856 8.40094 22.7755 10.6442L17.5288 12.5943C16.8698 11.3452 15.9193 10.3638 14.6773 9.65003C13.4353 8.93626 12.0666 8.57938 10.5711 8.57938C8.28989 8.57938 6.38888 9.35688 4.86808 10.9119C3.34728 12.4669 2.58688 14.3915 2.58688 16.6858C2.58688 18.98 3.30926 20.9174 4.75402 22.4979C6.22413 24.0529 8.0491 24.8304 10.2289 24.8304C11.8765 24.8304 13.3592 24.3843 14.6773 23.4921C15.9953 22.5744 16.8951 21.3635 17.3767 19.8595H9.58257V15.1945H23.5359C23.5359 15.322 23.5486 15.5641 23.574 15.921C23.6247 16.2524 23.65 16.4691 23.65 16.571C23.5993 20.4713 22.3193 23.6833 19.81 26.2069C17.25 28.7816 14.0816 30.0689 10.305 30.0689C6.50294 30.0689 3.32193 28.7944 0.761912 26.2452C0.544529 26.0265 0.336376 25.8036 0.137452 25.5763C3.09233 30.282 8.32832 33.4101 14.2949 33.4101Z" fill="#3C50E8"/>
</g>
</svg>
